<?xml version="1.0" encoding="utf-8"?>
<!-- Generator: Adobe Illustrator 25.4.1, SVG Export Plug-In . SVG Version: 6.00 Build 0)  -->
<svg version="1.1" id="Layer_1" xmlns="http://www.w3.org/2000/svg" xmlns:xlink="http://www.w3.org/1999/xlink" x="0px" y="0px"
	 viewBox="0 0 156.58 102.19" style="enable-background:new 0 0 156.58 102.19;" xml:space="preserve">
<style type="text/css">
	.st0{fill:#0AB2C8;}
	.st1{fill:#FFFFFF;}
	.st2{fill:#F37C20;}
	.st3{fill:#6D6E70;}
</style>
<g>
	<g>
		<g>
			<rect x="4.67" y="24.31" class="st0" width="35.09" height="35.09"/>
		</g>
	</g>
	<g>
		<path class="st1" d="M13.05,52.63l-3.92-21.1h4.89l1.46,9.87c0.13,1.1,0.27,2.21,0.42,3.32c0.15,1.11,0.29,2.23,0.42,3.35h0.13
			c0.22-1.12,0.43-2.24,0.63-3.35c0.2-1.11,0.42-2.22,0.63-3.32l2.27-9.87h4.05l2.27,9.87c0.22,1.06,0.43,2.15,0.63,3.27
			c0.2,1.12,0.42,2.25,0.63,3.4h0.13c0.15-1.14,0.3-2.27,0.44-3.38c0.14-1.11,0.29-2.21,0.44-3.29l1.46-9.87h4.56l-3.75,21.1h-5.99
			l-2.07-9.58c-0.17-0.82-0.33-1.65-0.47-2.48c-0.14-0.83-0.26-1.63-0.37-2.41h-0.13c-0.13,0.78-0.26,1.58-0.4,2.41
			c-0.14,0.83-0.3,1.66-0.47,2.48l-1.97,9.58H13.05z"/>
	</g>
	<g>
		<rect x="42.59" y="24.31" class="st2" width="35.09" height="35.09"/>
	</g>
	<g>
		<path class="st1" d="M59.76,53.02c-1.9,0-3.57-0.44-5-1.33c-1.44-0.88-2.56-2.15-3.37-3.8c-0.81-1.65-1.21-3.62-1.21-5.91
			c0-2.31,0.4-4.27,1.21-5.87c0.81-1.61,1.93-2.84,3.37-3.69c1.43-0.85,3.1-1.28,5-1.28c1.9,0,3.56,0.43,5,1.28
			c1.44,0.85,2.56,2.09,3.37,3.71c0.81,1.62,1.21,3.57,1.21,5.86c0,2.29-0.4,4.26-1.21,5.91c-0.81,1.65-1.93,2.92-3.37,3.8
			C63.32,52.57,61.66,53.02,59.76,53.02z M59.76,48.9c1.45,0,2.59-0.63,3.43-1.88c0.84-1.25,1.26-2.93,1.26-5.05
			c0-2.11-0.42-3.77-1.26-4.95c-0.84-1.19-1.99-1.78-3.43-1.78c-1.45,0-2.59,0.59-3.43,1.78c-0.84,1.19-1.26,2.84-1.26,4.95
			c0,2.11,0.42,3.8,1.26,5.05C57.17,48.28,58.31,48.9,59.76,48.9z"/>
	</g>
	<g>
		<rect x="80.09" y="24.31" class="st0" width="35.09" height="35.09"/>
	</g>
	<g>
		<path class="st1" d="M89.83,52.63v-21.1h7.61c1.49,0,2.85,0.2,4.08,0.6c1.23,0.4,2.21,1.07,2.95,2.02c0.73,0.95,1.1,2.27,1.1,3.95
			c0,1.55-0.34,2.83-1.02,3.84c-0.68,1-1.59,1.75-2.74,2.25l4.79,8.45h-5.34l-4.05-7.61h-2.62v7.61H89.83z M94.59,41.23h2.46
			c1.25,0,2.21-0.26,2.86-0.79c0.66-0.53,0.99-1.31,0.99-2.35c0-1.04-0.33-1.76-0.99-2.17c-0.66-0.41-1.61-0.62-2.86-0.62h-2.46
			V41.23z"/>
	</g>
	<g>
		<rect x="117.91" y="24.31" class="st2" width="35.09" height="35.09"/>
	</g>
	<g>
		<path class="st1" d="M127.29,52.63v-21.1h5.96c2.16,0,4.02,0.37,5.6,1.1c1.57,0.73,2.8,1.87,3.67,3.42
			c0.87,1.54,1.31,3.52,1.31,5.94c0,2.42-0.43,4.41-1.29,5.99c-0.86,1.58-2.07,2.75-3.61,3.51c-1.54,0.77-3.35,1.15-5.42,1.15
			H127.29z M132.05,48.78h0.91c1.21,0,2.26-0.22,3.16-0.65c0.89-0.43,1.59-1.14,2.09-2.14c0.5-0.99,0.74-2.33,0.74-4.01
			c0-1.68-0.25-3-0.74-3.97c-0.5-0.96-1.19-1.64-2.09-2.04c-0.9-0.4-1.95-0.6-3.16-0.6h-0.91V48.78z"/>
	</g>
	<g>
		<rect x="4.67" y="62.73" class="st2" width="35.09" height="35.09"/>
	</g>
	<g>
		<path class="st1" d="M23.33,91.44c-1.92,0-3.66-0.41-5.23-1.23c-1.56-0.82-2.81-2.03-3.72-3.64C13.46,84.96,13,82.98,13,80.63
			c0-2.33,0.47-4.32,1.41-5.97c0.94-1.65,2.18-2.91,3.74-3.79c1.55-0.87,3.27-1.31,5.15-1.31c1.53,0,2.85,0.28,3.95,0.84
			c1.1,0.56,2,1.2,2.69,1.91l-2.49,3.04c-0.54-0.47-1.11-0.87-1.72-1.2c-0.6-0.32-1.36-0.49-2.27-0.49c-1.64,0-2.98,0.6-4.01,1.81
			c-1.04,1.21-1.55,2.87-1.55,4.98c0,2.16,0.5,3.84,1.49,5.05c0.99,1.21,2.47,1.81,4.43,1.81c0.43,0,0.85-0.05,1.26-0.16
			c0.41-0.11,0.74-0.27,1-0.49v-3.62h-3.5v-3.88h7.7v9.71c-0.73,0.71-1.71,1.32-2.93,1.81C26.14,91.19,24.79,91.44,23.33,91.44z"/>
	</g>
	<g>
		<rect x="42.59" y="62.73" class="st0" width="35.09" height="35.09"/>
	</g>
	<g>
		<path class="st1" d="M50.29,91.05l6.6-21.1h5.73l6.6,21.1h-5.05l-1.29-5.02h-6.44l-1.29,5.02H50.29z M57.93,80.37l-0.52,1.94h4.5
			l-0.49-1.94c-0.28-1.06-0.57-2.18-0.86-3.37c-0.29-1.19-0.58-2.33-0.86-3.43h-0.13c-0.26,1.12-0.52,2.27-0.79,3.45
			C58.52,78.2,58.23,79.31,57.93,80.37z"/>
	</g>
	<g>
		<rect x="80.09" y="62.73" class="st2" width="35.09" height="35.09"/>
	</g>
	<g>
		<path class="st1" d="M87.42,91.05v-21.1h5.21l3.4,9.39c0.22,0.6,0.42,1.24,0.61,1.91c0.19,0.67,0.4,1.33,0.62,1.97h0.13
			c0.22-0.65,0.42-1.31,0.6-1.97c0.18-0.67,0.38-1.31,0.6-1.91l3.33-9.39h5.18v21.1h-4.34v-7.74c0-0.69,0.04-1.46,0.11-2.31
			c0.07-0.85,0.16-1.71,0.26-2.57c0.1-0.86,0.18-1.63,0.24-2.3h-0.13l-1.72,5.02l-3.01,8.06H95.9l-3.01-8.06l-1.68-5.02h-0.13
			c0.09,0.67,0.17,1.44,0.26,2.3c0.09,0.86,0.17,1.72,0.24,2.57c0.08,0.85,0.11,1.62,0.11,2.31v7.74H87.42z"/>
	</g>
	<g>
		<rect x="117.91" y="62.73" class="st0" width="35.09" height="35.09"/>
	</g>
	<g>
		<path class="st1" d="M128.7,91.05v-21.1h13.21v4.01h-8.45v4.24h7.19v3.98h-7.19v4.85h8.77v4.01H128.7z"/>
	</g>
	<g>
		<path class="st3" d="M12.19,20.17c-1.41,0-2.69-0.3-3.83-0.9c-1.15-0.6-2.06-1.49-2.73-2.67c-0.67-1.18-1.01-2.63-1.01-4.36
			c0-1.71,0.34-3.17,1.03-4.38c0.69-1.21,1.6-2.14,2.74-2.78c1.14-0.64,2.4-0.96,3.77-0.96c1.12,0,2.09,0.21,2.9,0.62
			c0.81,0.41,1.46,0.88,1.97,1.4l-1.83,2.23c-0.4-0.35-0.82-0.64-1.26-0.88c-0.44-0.24-1-0.36-1.66-0.36c-1.2,0-2.18,0.44-2.94,1.33
			c-0.76,0.89-1.14,2.11-1.14,3.66c0,1.58,0.36,2.82,1.09,3.7c0.73,0.89,1.81,1.33,3.25,1.33c0.32,0,0.63-0.04,0.93-0.12
			c0.3-0.08,0.55-0.2,0.74-0.36v-2.66h-2.56v-2.85h5.65v7.12c-0.54,0.52-1.25,0.97-2.15,1.33C14.26,19.99,13.27,20.17,12.19,20.17z"
			/>
		<path class="st3" d="M20.5,19.88V4.4h9.69v2.94h-6.2v3.11h5.27v2.92h-5.27v3.56h6.43v2.94H20.5z"/>
		<path class="st3" d="M33.51,19.88V4.4h3.58l4.04,7.69l1.52,3.42h0.1c-0.06-0.82-0.15-1.74-0.26-2.75
			c-0.11-1.01-0.17-1.98-0.17-2.9V4.4h3.32v15.48h-3.58l-4.04-7.72L36.5,8.8h-0.1c0.08,0.85,0.17,1.77,0.27,2.75
			c0.1,0.98,0.15,1.93,0.15,2.85v5.48H33.51z"/>
		<path class="st3" d="M49.3,19.88V4.4h9.69v2.94h-6.2v3.11h5.27v2.92h-5.27v3.56h6.43v2.94H49.3z"/>
		<path class="st3" d="M62.31,19.88V4.4h5.58c1.09,0,2.09,0.15,2.99,0.44c0.9,0.29,1.62,0.79,2.16,1.48c0.54,0.7,0.81,1.66,0.81,2.9
			c0,1.14-0.25,2.08-0.75,2.81c-0.5,0.74-1.17,1.29-2.01,1.65l3.51,6.2h-3.92l-2.97-5.58H65.8v5.58H62.31z M65.8,11.53h1.8
			c0.92,0,1.62-0.19,2.1-0.58c0.48-0.39,0.72-0.96,0.72-1.72c0-0.76-0.24-1.29-0.72-1.59c-0.48-0.3-1.18-0.45-2.1-0.45h-1.8V11.53z"
			/>
		<path class="st3" d="M76.86,19.88V4.4h3.49v15.48H76.86z"/>
		<path class="st3" d="M90.47,20.17c-1.3,0-2.49-0.3-3.58-0.9c-1.09-0.6-1.97-1.49-2.62-2.67c-0.66-1.18-0.98-2.63-0.98-4.36
			c0-1.71,0.34-3.17,1.01-4.38c0.67-1.21,1.57-2.14,2.68-2.78c1.12-0.64,2.32-0.96,3.62-0.96c1,0,1.89,0.2,2.68,0.61
			c0.79,0.4,1.45,0.87,1.97,1.41l-1.85,2.23c-0.4-0.36-0.81-0.66-1.25-0.89c-0.44-0.23-0.93-0.34-1.48-0.34
			c-0.7,0-1.33,0.2-1.91,0.59c-0.58,0.4-1.04,0.97-1.38,1.71c-0.34,0.74-0.51,1.64-0.51,2.68c0,1.58,0.34,2.82,1.02,3.7
			c0.68,0.89,1.59,1.33,2.73,1.33c0.63,0,1.2-0.14,1.7-0.43c0.5-0.28,0.94-0.63,1.32-1.02l1.85,2.18
			C94.18,19.41,92.51,20.17,90.47,20.17z"/>
	</g>
</g>
</svg>
