<?xml version="1.0" encoding="utf-8"?>
<!-- Generator: Adobe Illustrator 25.4.1, SVG Export Plug-In . SVG Version: 6.00 Build 0)  -->
<svg version="1.1" id="Layer_1" xmlns="http://www.w3.org/2000/svg" xmlns:xlink="http://www.w3.org/1999/xlink" x="0px" y="0px"
	 viewBox="0 0 1920 375.9" style="enable-background:new 0 0 1920 375.9;" xml:space="preserve">
<style type="text/css">
	.st0{opacity:0.20;fill:#6E6F71;}
	.st1{opacity:0.20;fill:#10B2C8;}
	.st2{opacity:0.20;fill:#F27C21;}
	.st3{opacity:0.20;}
	.st4{fill:#F27C21;}
	.st5{fill:#10B2C8;}
</style>
<rect x="7.67" y="316.16" class="st0" width="54.63" height="54.63"/>
<rect x="67.56" y="316.16" class="st1" width="54.63" height="54.63"/>
<rect x="127.45" y="316.16" class="st1" width="54.63" height="54.63"/>
<rect x="187.34" y="316.16" class="st0" width="54.63" height="54.63"/>
<rect x="7.67" y="256.85" class="st0" width="54.63" height="54.63"/>
<rect x="67.56" y="256.85" class="st1" width="54.63" height="54.63"/>
<rect x="127.45" y="256.85" class="st0" width="54.63" height="54.63"/>
<rect x="187.34" y="256.85" class="st1" width="54.63" height="54.63"/>
<rect x="246.57" y="316.16" class="st0" width="54.63" height="54.63"/>
<rect x="306.46" y="316.16" class="st0" width="54.63" height="54.63"/>
<rect x="366.35" y="316.16" class="st0" width="54.63" height="54.63"/>
<rect x="426.24" y="316.16" class="st1" width="54.63" height="54.63"/>
<rect x="246.57" y="256.85" class="st1" width="54.63" height="54.63"/>
<rect x="306.46" y="256.85" class="st1" width="54.63" height="54.63"/>
<rect x="366.35" y="256.85" class="st1" width="54.63" height="54.63"/>
<rect x="426.24" y="256.85" class="st0" width="54.63" height="54.63"/>
<rect x="485.48" y="316.14" class="st1" width="54.63" height="54.63"/>
<rect x="545.36" y="316.14" class="st0" width="54.63" height="54.63"/>
<rect x="605.25" y="316.14" class="st0" width="54.63" height="54.63"/>
<rect x="665.14" y="316.14" class="st1" width="54.63" height="54.63"/>
<rect x="485.48" y="256.84" class="st1" width="54.63" height="54.63"/>
<rect x="545.36" y="256.84" class="st0" width="54.63" height="54.63"/>
<rect x="605.25" y="256.84" class="st2" width="54.63" height="54.63"/>
<rect x="665.14" y="256.84" class="st1" width="54.63" height="54.63"/>
<rect x="724.38" y="316.16" class="st0" width="54.63" height="54.63"/>
<rect x="784.26" y="316.16" class="st1" width="54.63" height="54.63"/>
<rect x="844.15" y="316.16" class="st1" width="54.63" height="54.63"/>
<rect x="904.04" y="316.16" class="st0" width="54.63" height="54.63"/>
<rect x="724.38" y="256.85" class="st1" width="54.63" height="54.63"/>
<rect x="784.26" y="256.85" class="st1" width="54.63" height="54.63"/>
<rect x="844.15" y="256.85" class="st0" width="54.63" height="54.63"/>
<rect x="904.04" y="256.85" class="st1" width="54.63" height="54.63"/>
<rect x="7.51" y="197.65" class="st0" width="54.63" height="54.63"/>
<rect x="67.4" y="197.65" class="st1" width="54.63" height="54.63"/>
<rect x="127.29" y="197.65" class="st1" width="54.63" height="54.63"/>
<rect x="187.18" y="197.65" class="st1" width="54.63" height="54.63"/>
<rect x="7.51" y="138.35" class="st1" width="54.63" height="54.63"/>
<rect x="67.4" y="138.35" class="st2" width="54.63" height="54.63"/>
<rect x="127.29" y="138.35" class="st2" width="54.63" height="54.63"/>
<g class="st3">
	<rect x="246.41" y="197.65" class="st4" width="54.63" height="54.63"/>
	<rect x="426.08" y="197.65" class="st4" width="54.63" height="54.63"/>
</g>
<rect x="485.31" y="197.64" class="st1" width="54.63" height="54.63"/>
<rect x="545.2" y="197.64" class="st1" width="54.63" height="54.63"/>
<rect x="605.09" y="197.64" class="st1" width="54.63" height="54.63"/>
<rect x="664.98" y="197.64" class="st1" width="54.63" height="54.63"/>
<rect x="485.31" y="138.33" class="st1" width="54.63" height="54.63"/>
<rect x="545.2" y="138.33" class="st2" width="54.63" height="54.63"/>
<rect x="724.21" y="197.65" class="st2" width="54.63" height="54.63"/>
<rect x="784.1" y="197.65" class="st1" width="54.63" height="54.63"/>
<rect x="843.99" y="197.65" class="st1" width="54.63" height="54.63"/>
<rect x="903.88" y="197.65" class="st1" width="54.63" height="54.63"/>
<rect x="843.99" y="138.35" class="st1" width="54.63" height="54.63"/>
<rect x="903.88" y="138.35" class="st2" width="54.63" height="54.63"/>
<rect x="963.72" y="315.93" class="st1" width="54.63" height="54.63"/>
<rect x="1023.61" y="315.93" class="st0" width="54.63" height="54.63"/>
<rect x="1083.5" y="315.93" class="st0" width="54.63" height="54.63"/>
<rect x="1143.39" y="315.93" class="st0" width="54.63" height="54.63"/>
<rect x="963.72" y="256.63" class="st1" width="54.63" height="54.63"/>
<rect x="1023.61" y="256.63" class="st1" width="54.63" height="54.63"/>
<rect x="1083.5" y="256.63" class="st1" width="54.63" height="54.63"/>
<rect x="1143.39" y="256.63" class="st1" width="54.63" height="54.63"/>
<rect x="1202.62" y="315.93" class="st0" width="54.63" height="54.63"/>
<rect x="1262.51" y="315.93" class="st0" width="54.63" height="54.63"/>
<rect x="1322.4" y="315.93" class="st1" width="54.63" height="54.63"/>
<rect x="1382.29" y="315.93" class="st0" width="54.63" height="54.63"/>
<rect x="1202.62" y="256.63" class="st1" width="54.63" height="54.63"/>
<rect x="1262.51" y="256.63" class="st1" width="54.63" height="54.63"/>
<rect x="1322.4" y="256.63" class="st0" width="54.63" height="54.63"/>
<rect x="1382.29" y="256.63" class="st0" width="54.63" height="54.63"/>
<rect x="1441.52" y="315.92" class="st1" width="54.63" height="54.63"/>
<rect x="1501.41" y="315.92" class="st0" width="54.63" height="54.63"/>
<rect x="1441.52" y="256.61" class="st0" width="54.63" height="54.63"/>
<rect x="1501.41" y="256.61" class="st1" width="54.63" height="54.63"/>
<g class="st3">
	<rect x="963.56" y="197.43" class="st4" width="54.63" height="54.63"/>
	<rect x="1143.22" y="197.43" class="st5" width="54.63" height="54.63"/>
</g>
<rect x="1202.46" y="197.43" class="st2" width="54.63" height="54.63"/>
<rect x="1262.35" y="197.43" class="st1" width="54.63" height="54.63"/>
<rect x="1322.24" y="197.43" class="st0" width="54.63" height="54.63"/>
<rect x="1382.12" y="197.43" class="st1" width="54.63" height="54.63"/>
<rect x="1740.71" y="136.81" class="st1" width="54.63" height="54.63"/>
<rect x="1800.6" y="136.81" class="st1" width="54.63" height="54.63"/>
<rect x="1860.48" y="136.81" class="st1" width="54.63" height="54.63"/>
<rect x="1441.36" y="197.41" class="st1" width="54.63" height="54.63"/>
<rect x="1501.25" y="197.41" class="st2" width="54.63" height="54.63"/>
<rect x="1441.36" y="138.11" class="st1" width="54.63" height="54.63"/>
<rect x="1501.25" y="138.11" class="st1" width="54.63" height="54.63"/>
<g class="st3">
	<rect x="7.12" y="77.97" class="st5" width="54.63" height="54.63"/>
	<rect x="67" y="77.97" class="st5" width="54.63" height="54.63"/>
	<rect x="7.12" y="18.67" class="st4" width="54.63" height="54.63"/>
</g>
<g>
</g>
<rect x="1740.31" y="76.44" class="st1" width="54.63" height="54.63"/>
<rect x="1800.2" y="76.44" class="st2" width="54.63" height="54.63"/>
<rect x="1860.09" y="76.44" class="st1" width="54.63" height="54.63"/>
<rect x="1800.2" y="17.13" class="st1" width="54.63" height="54.63"/>
<rect x="1860.09" y="17.13" class="st1" width="54.63" height="54.63"/>
<rect x="1440.96" y="77.74" class="st2" width="54.63" height="54.63"/>
<rect x="1500.85" y="77.74" class="st1" width="54.63" height="54.63"/>
<rect x="1561.46" y="314.53" class="st1" width="54.63" height="54.63"/>
<rect x="1561.46" y="255.22" class="st0" width="54.63" height="54.63"/>
<rect x="1620.69" y="314.52" class="st1" width="54.63" height="54.63"/>
<rect x="1680.58" y="314.52" class="st0" width="54.63" height="54.63"/>
<rect x="1740.47" y="314.52" class="st0" width="54.63" height="54.63"/>
<rect x="1800.36" y="314.52" class="st1" width="54.63" height="54.63"/>
<rect x="1620.69" y="255.21" class="st1" width="54.63" height="54.63"/>
<rect x="1680.58" y="255.21" class="st0" width="54.63" height="54.63"/>
<rect x="1740.47" y="255.21" class="st2" width="54.63" height="54.63"/>
<rect x="1800.36" y="255.21" class="st1" width="54.63" height="54.63"/>
<rect x="1859.59" y="314.53" class="st0" width="54.63" height="54.63"/>
<rect x="1859.59" y="255.22" class="st1" width="54.63" height="54.63"/>
<g class="st3">
	<rect x="1561.3" y="196.02" class="st4" width="54.63" height="54.63"/>
</g>
<rect x="1620.53" y="196.01" class="st1" width="54.63" height="54.63"/>
<rect x="1680.42" y="196.01" class="st1" width="54.63" height="54.63"/>
<rect x="1740.31" y="196.01" class="st1" width="54.63" height="54.63"/>
<rect x="1800.2" y="196.01" class="st1" width="54.63" height="54.63"/>
<rect x="1620.53" y="136.7" class="st1" width="54.63" height="54.63"/>
<rect x="1680.42" y="136.7" class="st2" width="54.63" height="54.63"/>
<rect x="1859.43" y="196.02" class="st2" width="54.63" height="54.63"/>
</svg>
