<?xml version="1.0" encoding="utf-8"?>
<!-- Generator: Adobe Illustrator 25.4.1, SVG Export Plug-In . SVG Version: 6.00 Build 0)  -->
<svg version="1.1" id="Layer_1" xmlns="http://www.w3.org/2000/svg" xmlns:xlink="http://www.w3.org/1999/xlink" x="0px" y="0px"
	 viewBox="0 0 400 194.58" style="enable-background:new 0 0 400 194.58;" xml:space="preserve">
<style type="text/css">
	.st0{opacity:0.20;fill:#6E6F71;}
	.st1{opacity:0.20;fill:#10B2C8;}
	.st2{opacity:0.20;fill:#F27C21;}
	.st3{opacity:0.20;}
	.st4{fill:#F27C21;}
	.st5{fill:#10B2C8;}
</style>
<g>
</g>
<g>
	<rect x="2.87" y="163.53" class="st0" width="27.94" height="27.94"/>
	<rect x="33.51" y="163.53" class="st1" width="27.94" height="27.94"/>
	<rect x="64.14" y="163.53" class="st1" width="27.94" height="27.94"/>
	<rect x="94.77" y="163.53" class="st0" width="27.94" height="27.94"/>
	<rect x="2.87" y="133.2" class="st0" width="27.94" height="27.94"/>
	<rect x="33.51" y="133.2" class="st1" width="27.94" height="27.94"/>
	<rect x="64.14" y="133.2" class="st0" width="27.94" height="27.94"/>
	<rect x="94.77" y="133.2" class="st1" width="27.94" height="27.94"/>
	<rect x="125.07" y="163.53" class="st0" width="27.94" height="27.94"/>
	<rect x="155.71" y="163.53" class="st0" width="27.94" height="27.94"/>
	<rect x="186.34" y="163.53" class="st0" width="27.94" height="27.94"/>
	<rect x="216.97" y="163.53" class="st1" width="27.94" height="27.94"/>
	<rect x="125.07" y="133.2" class="st1" width="27.94" height="27.94"/>
	<rect x="155.71" y="133.2" class="st1" width="27.94" height="27.94"/>
	<rect x="186.34" y="133.2" class="st1" width="27.94" height="27.94"/>
	<rect x="216.97" y="133.2" class="st0" width="27.94" height="27.94"/>
	<rect x="247.27" y="163.53" class="st1" width="27.94" height="27.94"/>
	<rect x="277.9" y="163.53" class="st0" width="27.94" height="27.94"/>
	<rect x="308.54" y="163.53" class="st0" width="27.94" height="27.94"/>
	<rect x="339.17" y="163.53" class="st1" width="27.94" height="27.94"/>
	<rect x="247.27" y="133.19" class="st1" width="27.94" height="27.94"/>
	<rect x="277.9" y="133.19" class="st0" width="27.94" height="27.94"/>
	<rect x="308.54" y="133.19" class="st2" width="27.94" height="27.94"/>
	<rect x="339.17" y="133.19" class="st1" width="27.94" height="27.94"/>
	<rect x="369.47" y="163.53" class="st0" width="27.94" height="27.94"/>
	<rect x="369.47" y="133.2" class="st1" width="27.94" height="27.94"/>
	<rect x="2.79" y="102.92" class="st0" width="27.94" height="27.94"/>
	<rect x="33.42" y="102.92" class="st1" width="27.94" height="27.94"/>
	<rect x="64.06" y="102.92" class="st1" width="27.94" height="27.94"/>
	<rect x="94.69" y="102.92" class="st1" width="27.94" height="27.94"/>
	<rect x="2.79" y="72.58" class="st1" width="27.94" height="27.94"/>
	<rect x="33.42" y="72.58" class="st2" width="27.94" height="27.94"/>
	<rect x="64.06" y="72.58" class="st2" width="27.94" height="27.94"/>
	<g class="st3">
		<rect x="124.99" y="102.92" class="st4" width="27.94" height="27.94"/>
		<rect x="216.89" y="102.92" class="st4" width="27.94" height="27.94"/>
	</g>
	<rect x="247.19" y="102.91" class="st1" width="27.94" height="27.94"/>
	<rect x="277.82" y="102.91" class="st1" width="27.94" height="27.94"/>
	<rect x="308.45" y="102.91" class="st1" width="27.94" height="27.94"/>
	<rect x="339.09" y="102.91" class="st1" width="27.94" height="27.94"/>
	<rect x="247.19" y="72.57" class="st1" width="27.94" height="27.94"/>
	<rect x="277.82" y="72.57" class="st2" width="27.94" height="27.94"/>
	<rect x="369.39" y="102.92" class="st2" width="27.94" height="27.94"/>
	<g class="st3">
		<rect x="2.59" y="41.7" class="st5" width="27.94" height="27.94"/>
		<rect x="33.22" y="41.7" class="st5" width="27.94" height="27.94"/>
		<rect x="2.59" y="11.36" class="st4" width="27.94" height="27.94"/>
	</g>
</g>
</svg>
